<svg id="visual" viewBox="0 0 675 900" width="675" height="900" xmlns="http://www.w3.org/2000/svg" xmlns:xlink="http://www.w3.org/1999/xlink" version="1.1"><rect x="0" y="0" width="675" height="900" fill="#0a0a0a"></rect><path d="M0 152L28.2 141.3C56.3 130.7 112.7 109.3 169 107.5C225.3 105.7 281.7 123.3 337.8 141.3C394 159.3 450 177.7 506.2 181C562.3 184.3 618.7 172.7 646.8 166.8L675 161L675 0L646.8 0C618.7 0 562.3 0 506.2 0C450 0 394 0 337.8 0C281.7 0 225.3 0 169 0C112.7 0 56.3 0 28.2 0L0 0Z" fill="#0d54be" stroke-linecap="round" stroke-linejoin="miter"></path></svg>